<?xml version="1.0" encoding="UTF-8"?>
<svg version="1.1" viewBox="0 0 2048 867" width="2860" height="1212" xmlns="http://www.w3.org/2000/svg">
<path transform="translate(573,76)" d="m0 0 5 1 2 3v6l-6 3v2h7l1 3 4 2 1 1 1 10 2 4 6 5 6 7h8l5 6 3 10 7 6 4 8 7 2 1 5v5l9 2 4 4-1 5 7 6 1 3-1 1-10 1-3 4-5-1-10-3-2 6-4 5-1 10v9l5 20 6 8 4 4 1 5-5 17-7 15-4 8-7 2-6 7-7 4-1 5 2 4-1 5-4 7-2 9-7 7v7l5 8-1 6-4 6-4 4h-2l-1 9-4 9-1 15-5 10-2 6-5 13-7 15-6 14-3 6-2 6-2 7-2 19-8 16-3 12-4 7-2 4-1 7-4 9-5 16-10 30-1 7 10 3 7 6 4 7 3 5 1 6v11l-2 10-8 10-8 8-8 7-6 5-7 11-11 9-5 4 1 6 3 4v12l-10 10-5 7-4 2-5 13-6 5-11 6-4 2-21 2-11 3-9 4-8 6-5 4-14 3h-6l-4-2v-2l-6-2-3-2v-2l-5-2-8-3-11-2-4-2-3-3v-2l-5-2-9-7-3-7-2-11-7-11-5-1-7 7-11 5-2-1 1-5 4-6 6-5 9-3-1-3h-15l1-4-5-3-8-2-6-4-2-5 1-1h14l6 4 4 9h11l1-8-2-8-4-2-13-5-11-4-12-3-16-1-8 7-13 5-11 2h-5l2-5 9-8 4-1v-2l-15-2-2-1v-5l-5-5-9-5-5-8-1-11 3-3 8 7 9 7 5 6 1 2 1 9 1 2 26 1 9 2 9 1 6 2h3l-1-4-8-7-6-6v-2h-2l-7-8-2-4h-2l-8-12-4-5-8-16-1-7 2-2 4 8 2 5 6 10 6 9 12 14 7 7 6 3 5 6 2 1v2l4 2 22 13 5 1 4-2-2-6-5-9-3-16-10-10-4-10-2-6v-28l3-6 3-9 4-4v-13l5-6 9-1 5-2 4-20 2-5 5-3 3-4-2-5h-11l-7-4-1-2v-7l4-4h2l1-7 4-4 6-3 5-6 5-3h2l2-5 6-4 2-4v-9l-10-10-3-6-1-7-5 1-1 4h-3l-1-15v-21h-7l-5 1-3-3 4-7 6-7h2l2-5 2-4v-8l-4-6-3-3v-7l5-7 4-8h2l2-5 9-15 3-6 2-10-1-6v-10l2-2h9l3 1h9l5-2v-2l11-8h5l2 2 6-1 10-2 1-1 1-9 2-2 6 1 1 5 1 3h6l5-4 2-3 7 1 7 5 4 1-4-9 1-5 3-3 7-4 10-9 4-4 4-2 7-2 7-8h2l2-4 4-10 5-5 5 1-1 9-3 4-1 8h3l6-9 5-10 3-8-4-5 2-6 4-5h9l4 2v-11l-5-1v-4h2l1-6-4-6-2-2v-6l3-5 7-1 8 6h3l5-7 5-2 3-2 11-2 3-4v-12l6-10 2-3v-6l-6-12 1-5 7-2 8-6 2-3 1-7zm-74 135-4 2 3 5 4 1 2-4-4-4zm-44 41v6h4l1-2-2-4zm-45 46 1 2zm-8 5-1 2 7 11 6 5 6-1 2-7 20 7 12 4 6-1-1-4-10-4-21-6-9-1-3-2-9-3zm40 26 2 9 3 3h17l3-1 4-5v-3l-4-1h-10l-8-2zm55 297-1 1-1 7v10l3 2 5-1 5-3 2-2-1-6-4-5-4-3z" fill="#95AA62"/>
<path transform="translate(573,76)" d="m0 0 5 1 2 3v6l-6 3v2h7l1 3 4 2 1 1 1 10 2 4 6 5 6 7h8l5 6 3 10 7 6 4 8 7 2 1 5v5l9 2 4 4-1 5 7 6 1 3-1 1-10 1-3 4-5-1-10-3-2 6-4 5-1 10v9l5 20 6 8 4 4 1 5-5 17-7 15-4 8-7 2-6 7-7 4-1 5 2 4-1 5-4 7-2 9-7 7v7l5 8-1 6-4 6-4 4h-2l-1 9-4 9-1 15-5 10-2 6-5 13-7 15-6 14-3 6-2 6-2 7-2 19-2 4-2-2 1-1 1-19 1-3h2l1-7 3-8h2l1-6 3-8h2v-5l2-6 1-6-3 1-1 2-6-1-5-3 4-4 4-2 2-4h-10v-3l3-10-5 1-6 5h-3l-1-10h-4l-3 10h-2l-4-6h-6l1 5 5 7v2l-14-2v4l5 2 2 4-6 4-1 6 7 1 2 7 9 1-3 4-4 2-4-1-3-7-2-1v-2l-4 1-3-4 1-10-4-1-2 5-2 1-6-3-5-1h-2l-1 2 1-5h9v-3l-3-1-4-7-8-9-2-4 1-5h2v-2l-26-5-19-4-7-1v13l-2 6-4 5h-2l-2 4-7 7-2 3-3-1-2-5v-8l6-3 9-1-2-5-10-12-9-11-6-7-1-9 1-17-35 6-46 9 2 10v7l-3 3h-2l-2 8-7 10-4 3-2-1 6-7h2l2-5 2-4v-8l-4-6-3-3v-7l5-7 4-8h2l2-5 9-15 3-6 2-10-1-6v-10l2-2h9l3 1h9l5-2v-2l11-8h5l2 2 6-1 10-2 1-1 1-9 2-2 6 1 1 5 1 3h6l5-4 2-3 7 1 7 5 4 1-4-9 1-5 3-3 7-4 10-9 4-4 4-2 7-2 7-8h2l2-4 4-10 5-5 5 1-1 9-3 4-1 8h3l6-9 5-10 3-8-4-5 2-6 4-5h9l4 2v-11l-5-1v-4h2l1-6-4-6-2-2v-6l3-5 7-1 8 6h3l5-7 5-2 3-2 11-2 3-4v-12l6-10 2-3v-6l-6-12 1-5 7-2 8-6 2-3 1-7zm-74 135-4 2 3 5 4 1 2-4-4-4zm-44 41v6h4l1-2-2-4zm-45 46 1 2zm-8 5-1 2 7 11 6 5 6-1 2-7 20 7 12 4 6-1-1-4-10-4-21-6-9-1-3-2-9-3zm40 26 2 9 3 3h17l3-1 4-5v-3l-4-1h-10l-8-2z" fill="#B4BD75"/>
<path transform="translate(573,76)" d="m0 0 5 1 2 3v6l-6 3v2h7l1 3 4 2 1 1 1 10 2 4 6 5 6 7h8l5 6 3 10 7 6 4 8 7 2 1 5v5l9 2 4 4-1 5 7 6 1 3-1 1-10 1-3 4-5-1-10-3-2 6-4 5-1 10v9l5 20 6 8 4 4 1 5-5 17-7 15-4 8-7 2-6 7-7 4-1 5 2 4-1 5-4 7-2 9-4 2-3-3-3-10-6-9-15-10-5-2-6-12-2-6 1-5 1-1-1-8-6-8-2-1v-2l-6-2-4-4-3-1-1 3-4-1-1-6-4-5-3-2-8-6-6-5-6-2h-6l-3 4-6 2-4 5-2-1 6-8 6-12 3-8-4-5 2-6 4-5h9l4 2v-11l-5-1v-4h2l1-6-4-6-2-2v-6l3-5 7-1 8 6h3l5-7 5-2 3-2 11-2 3-4v-12l6-10 2-3v-6l-6-12 1-5 7-2 8-6 2-3 1-7zm-74 135-4 2 3 5 4 1 2-4-4-4z" fill="#B6BE76"/>
<path transform="translate(312,614)" d="m0 0 6 2 7 8v2h2l3 5 2 5 3 4v2l4 2 5 2 7 1-2 4-3 3-1 6 1 2 4 1-2 6-1 7h2l1 5 5-2 4-3h3l-2 15 1 7 5 9-2 6-3 7-2 11h-6l-7-3-6-2-5 1-1 3h6l-1 3-9 1h-2l-4 4 1 3 4-1 1-1h10l3 2-2 5-3 6v2l4-1 4-5 9-4h5l3 3v2l3-1 1-4 2-2v-10l4-6 5-6 3-4-1-16-3-6-6-8 1-3 3-2 2-14 3-4 3 1 3 8 1 16 3 5 1 3v11l-4 6-1 3 18-1 9-4 9-7h2l2-4 8-6 16-8 12-3h6l-1 3-8 4-5 5-2 6v11l3 8 3 3 9 4 6 2v3l-1 1h-12l-9-1-9-5h-5l-2 5 4 2-4 2-12 3-4 4 9-1 7 1-2 4-6 9-2 6 5-5 9-7 16-5 4 1v6l-4 10-3 8-9 6-10 5-21 2-11 3-9 4-8 6-5 4-14 3h-6l-4-2v-2l-6-2-3-2v-2l-5-2-8-3-11-2-4-2-3-3v-2l-5-2-9-7-3-7-2-11-7-11-5-1-7 7-11 5-2-1 1-5 4-6 6-5 9-3-1-3h-15l1-4-5-3-8-2-6-4-2-5 1-1h14l6 4 4 9h11l1-8-2-8-4-2-7-3-3-3-15-5v-5l-7-6-3-3 1-2 7 4 6 5 9 5 12 7h5l5-2-1-7-6-9-1-5v-12l3-6 4 4 6 8 7 9 2 8v5l5-1h8l11 5 2-9 3-8v-10l-4-7v-12l-3-11-4-5-4-3v-4l-4-2-1-6z" fill="#779A52"/>
<path transform="translate(343,593)" d="m0 0h9l6 4 5 3 6 12 13 18 2 6h2v2l10 3 16 6 10 2 36 12 5 1h20l7-3 8-5 5 1 4 4 5 13v2l2 1-13 12-5 5-6 9-11 9-5 4 1 6 3 4v12l-10 10-5 7-4 2-5 13-1-3 4-11 2-8-7 1-13 4-9 7-3 4h-2l1-6 6-9 3-4h-11l-6 1 2-4 9-4 9-2-3-2 1-5 1-1 8 1 6 4 9 1h12v-3l-9-3-6-3-4-5-2-6v-11l3-7 8-7 5-2 1-2-18 4-19 10-6 5-5 5-10 7-6 2h-18l1-5 3-4v-11l-3-7-1-1-1-16-3-8-3 1-2 10-2 7-3 2 2 4 6 9 1 3 1 16-7 9-4 5-1 2v10l-3 3v5l-4-1-3-4-8 1-7 4-4 5-4-1 2-6 3-5v-2l-2-1h-10l-2 2-4-1v-4l6-5v2l9-2 1-2h-6l1-4 5-1 11 4 8 2 1-11 5-11-2-5-4-8 1-13 2-7-6 3-2 2h-4l-1-5h-2v-7l3-6-5-1-1-5 3-5 4-5h-7l-6-3-5-5-3-4-3-9h-2l-7-9-3-2v-3l-6-1 4-2 1-4-4-1 2-4 3-2 16-2 1-1h11z" fill="#DFDD84"/>
<path transform="translate(379,352)" d="m0 0h7v23l4 7 11 12 7 9 6 8-1 3h-21l2 13-1 31-6 2-13-3-1 5-4-1v-3l-3-1-2-8h-11v7l-2 7-3-1v-13l-38-3-7-1-1 7h-3l-1-15v-21h-7l-5 1-3-3 3-5 5-4h2l2-4 5-8 2-6 4-3v-7l-2-10 6-2 57-11z" fill="#957149"/>
<path transform="translate(607,123)" d="m0 0 4 1 4 5 3 10 7 6 4 8 7 2 1 5v5l9 2 4 4-1 5 7 6 1 3-1 1-10 1-3 4-5-1-10-3-2 6-5 3-5 1-5 10-6 4 6 8-2 7-1 1h-8l-2 9-4 1-2-2-1-6-7 3-7 1 1-9-8 6-4 2h-7l-6-4-2-4v-14l-11 7h-8l-3-3v-5l5-5 9-7-7-9v-10l2-5v-3l-4-3v-6l7-8 8-1 2 1v-11l2-5 9-6 5-2h6l-1 5-3 5 4-1 8-4h7l5 1 3-1h8l1-9z" fill="#8E4FA0"/>
<path transform="translate(492,230)" d="m0 0h6l9 4 3 3 8 6 4 2 2 4 3 4v4h3l1-2 4 1 4 4 5 2v2l3 1 6 8 1 8-2 2 1 5 3 10 3 4v3l7 2 15 11 5 8 2 5v5l3 1-1 5-2 2v7l5 8-1 6-4 6-4 4-12 4-11 2h-11l-12-2-11-4v-2l-5-2-4-5-1-2v-7l3-3 2-5v-7l-2-2 1-4 2-3 1-7 3-5 2-3 5-3 5-5 6-3h5l-1-3-11 1h-13l-9-2-7-5v-8l2-5-1-9 3-7 5-6 1-2-18 4-3-1h-17l-10-5-2-3 1-4 3-1 1-7 4-1 6-8 5-1z" fill="#AE8B6D"/>
<path transform="translate(356,593)" d="m0 0 9 1 4 4 9 4h17l20-5 2-2h12l2 1v5h17l1-3 15 1 2 1v5l9 2 7-1h9l2 1-1 5 9 5 6-1 7-1 7 6 4 7 3 5 1 6v11l-2 10-8 10-4 4h-3l-6-15-4-4-6 1-7 5-6 2h-20l-11-3-30-10-25-9-7-3-4-4-5-9-7-9-5-8-5-9-8-4zm141 33-1 1-1 7v10l3 2 5-1 5-3 2-2-1-6-4-5-4-3z" fill="#86A358"/>
<path transform="translate(648,404)" d="m0 0h19l4 6 9 27 5 12 7 21 1 4 3-1 8-20 15-44 3-5h22l-1 7-1 91-1 1h-16l-1-19v-25l-1-2h-2l-7 19-7 20-3 6-2 1h-14l-3-3-5-13-7-20-5-10-3-1 1 46-1 1h-17l-1-15v-28z" fill="#4F7519"/>
<path transform="translate(304,596)" d="m0 0 2 2-2 1v3l2 1-2 5-1 4 5 1h7l-1 2-1 4 1 6 3 2 2 5 6 5 2 4 2 9v12l4 7v10l-6 17-5-1-6-3h-13l-3-13-7-9-6-8-3-3-2 5v15l6 10 1 1v7l-5 3-7-1-20-12-9-7h-2l1 3 4 2 4 5v3l14 5 1 3-10-3-13-4-14-2h-6l-8 7-13 5-11 2h-5l2-5 9-8 4-1v-2l-15-2-2-1v-5l-5-5-9-5-5-8-1-11 3-3 8 7 9 7 5 6 1 2 1 9 1 2 26 1 9 2 9 1 6 2h3l-1-4-8-7-6-6v-2h-2l-7-8-2-4h-2l-8-12-4-5-8-16-1-7 2-2 4 8 2 5 6 10 6 9 12 14 7 7 6 3 5 6 2 1v2l4 2 22 13 5 1 4-2-2-6-5-9-3-16-3-3-3-5-4-5-3-8-2-12 1-15 1-3 10-2 11-6 5-5 2-1 9-1z" fill="#86A358"/>
<path transform="translate(1731,404)" d="m0 0h44l11 4 7 4v2l4 2 5 6 4 10 2 6v8l-3 12-6 11-3 1v2l-4 4 1 4 6 3 6 2 3 2v13l-2 3-9-1-10-4-10-9-5-5h-21v18l-1 1h-18zm25 18-5 2-1 38 3 3 6 1 18-2 8-6 4-6 1-4v-9l-3-7-5-6-6-3-6-1z" fill="#53781D"/>
<path transform="translate(406,278)" d="m0 0 7 1v2h2v2l14 3 15 4 18 4 12 5 11 7 8 4 9 2 1 3v11l-6 16-3 6-1 7-5 2-2 2-2-5h-7l-2-9-2-7h-3l1-6-20-3-10-2 3 13h-3v12l-4 10-8 6-9 6-4 5h-5l4-5 1-3h-15l-3-3 2-1 16-2v-4l-1-2 9 2v-2l4-4 5-10 1-6-5-2-8-5-7-1-2 6-5 2v-5l2-2h-7l-9 7-1-3 5-7-7-2 4-2h9l13-3h5l2-7 6 1 11 4 10 2 10 1-2-4-17-5-13-4-9-1-10-6 1-2h4v-4h-7l1 5-6-1-9-3-4-2v-7l2-2 7-2 4-1 2-4z" fill="#4E7519"/>
<path transform="translate(909,404)" d="m0 0h36l16 5 11 8 2 4h2l7 11 3 7 2 11v7l-4 15-5 10-6 7-7 6-13 6-10 2h-34l-1-98zm22 18-4 4v56l3 3h14l8-2 9-6 5-6 3-7 1-6v-9l-4-13-6-7-8-5-11-2z" fill="#557A1F"/>
<path transform="translate(1635,404)" d="m0 0h27l13 43 7 23 9 29 1 4h-19l-3-9-3-11-9 1-6 2-10 2-9 3-6 4-3 8h-19l3-10 5-18 7-21 7-23 7-21zm13 27-3 5-11 33 1 4 8-1 15-5 3-3-3-11-7-21z" fill="#50761A"/>
<path transform="translate(1288,404)" d="m0 0h26l6 20 6 18 5 17 8 26 6 18h-20l-5-15v-4l-5-1-22 5-12 5-3 5-2 5h-19l3-10 8-25 4-14 8-24 6-19zm13 26-3 3-12 36 1 4 10-2 10-3 5-2v-7l-8-25-2-4z" fill="#52781D"/>
<path transform="translate(490,470)" d="m0 0h5l4 6 1 4v13l9-11 5-4 6-1 3 2-1 9-6 9-3 3-1 3 12-3h6l2 2-1 5-4 4-9 4-4 1 12 5 5 3v8l-2 3-7-1-12-6-1 1 7 9 1 8-3 5-5-1-5-5-5-6-1 13-3 6-5 2-5-5-1-5v-11l-8 7-5 3-6-3-1-3 3-7 3-6-11 3h-6l-5-4 1-5 5-5 7-2h9v-2l-7-1-11-6-3-4 1-4 2-1h8l13 4 2 1-6-9-6-10-1-5 2-3h9l5 4 6 12 2-18z" fill="#8E4FA0"/>
<path transform="translate(1178,401)" d="m0 0h12l17 5 2 1-2 6-6 9h-4l-10-2-16 2-8 5-7 8-3 8v18l4 9 5 7 8 5 10 2h8l9-2 5-6v-9l-4-3-4-1h-11l-3-10v-6l2-3h15l9 3 8 6 6 10 1 4v9l-3 10-8 9-11 6-8 2h-13l-12-3-11-6-9-8-6-8-5-12-1-4v-21l4-11 6-9 8-9 14-8z" fill="#557A20"/>
<path transform="translate(1047,404)" d="m0 0h26l1 1 2 10 9 29 12 36 5 18 1 5h-19l-3-10-3-9-5-1-16 4-13 4-6 5-2 7h-19l1-6 20-62 6-20zm11 26-10 31-2 6v6l8-1 5-2 7-2 6-3-1-7-9-27z" fill="#567B21"/>
<path transform="translate(813,404)" d="m0 0h26l2 10 3 9 7 22 4 14 10 30 2 8 1 6h-17l-8-20-3-1-12 4-17 4-8 6-2 7h-18l2-10 9-29 18-56zm11 26-2 3-4 14-7 21v5l9-1 5-2 7-2 5-2v-7l-9-28z" fill="#54791F"/>
<path transform="translate(492,230)" d="m0 0h6l9 4 3 3 8 6 4 2 2 4 3 4v4h3l1-2 4 1 4 4 5 2v2l3 1 6 8 1 8-2 2 1 5 3 10 3 4v3l7 2 4 3 3 12-2 2-6 1h-19l-1-1-9-2v-4l5-1v-2h-2v-3l-2-1 8-4h5l-1-3-11 1h-13l-9-2-7-5v-8l2-5-1-9 3-7 5-6 1-2-18 4-3-1h-17l-10-5-2-3 1-4 3-1 1-7 4-1 6-8 5-1z" fill="#AE8B6D"/>
<path transform="translate(1407,401)" d="m0 0h13l12 4 9 6 5 6-1 5-14 7-8-7-12-1-7 2-4 6v6l5 5 26 13 9 8 4 8v14l-4 8-6 7-7 5-9 3h-12l-10-4-9-5v-2l-3-1-2-4 5-5 8-6 4 2 5 4 5 1h7l5-2 4-6-1-6-7-5-16-7-9-5v-2l-4-2-7-9-1-4v-12l4-10 6-7 11-6z" fill="#557A20"/>
<path transform="translate(422,393)" d="m0 0h7l45 9v4h-2l1 6 7 9 5 6 1 3 2 1v3h-11v23h-3v-5l-27 3h-1l-1 7h-2v-7h-8l-2 5-5 1h-9l-2-1-1-27h-9l-3-2 1-4 8-8 1-2h2l2-4 2-2z" fill="#937048"/>
<path transform="translate(331,480)" d="m0 0 7 1 4 4 2 3 9 2 5 4 3 7 6 3 2 4v6l-1 2 6 2 2 7-4 5-8 3h-3l-1 3-5 2h-14l-4 2h-5v-5l-5-1-3 6-5-2-7-2h-5l-5-4h-11l-7-4-1-2v-7l4-4h2l1-7 4-4 6-3 5-6 5-3h2l2-5 4-3 7-1z" fill="#425215"/>
<path transform="translate(1528,401)" d="m0 0h12l11 3 7 3-1 5-6 10-4 1-5-2-9-1-12 2-10 6-6 8-3 9v13l5 13 5 6 8 5 10 2 13-1 9-3 1-3 5 1 4 5 5 5 1 3-11 7-7 3-8 2h-16l-11-3-11-6-3-2v-2l-4-2-8-10-4-10-2-7v-19l4-12 6-10 8-8 10-6 8-3z" fill="#567B21"/>
<path transform="translate(791,586)" d="m0 0h10l8 2 10 5 6 5 8 12 3 16-2 12-6 11-9 9-12 6-6 1h-12l-8-2-10-5-6-5-7-11-3-8-1-4v-9l3-11 6-9h2l1-3h2l1-3 10-6 5-2zm1 14-8 2-9 6-5 9-1 4v9l3 8 4 6 7 5 7 2h11l8-3 7-6 4-8 1-10-2-10-6-8-9-5z" fill="#F36961"/>
<path transform="translate(910,586)" d="m0 0h18l3 2 2 9 7 22 4 14 3 9 6 19-1 4h-12l-3-4-3-10-1-2-8 1-15 4-7 4-4 6-1 1h-10l-2-1 1-6 10-34 8-25 3-11zm7 22-8 25-1 6 4 2 16-6v-6l-5-15-2-5z" fill="#F46760"/>
<path transform="translate(402,515)" d="m0 0h8l9 4 5 3 1 2 6 3 9 8 3 2v5l5 4 1 6-5 5-9 1-5 1-3 2-15 3-2-9-3 9-12-1h-8l-6-4-9-4-2-2v-5l5-5h2l-2-3 1-4 7-5 3-6 2-2 8-2v-2z" fill="#405114"/>
<path transform="translate(402,181)" d="m0 0h10l8 5 16 4 2 2-1 6-4 5-12 7-5 3-7 5-5-2-12-9h-6l-8 6-7 6-7 1-10-4-7-6h-7l-16 7h-6l1-7 3-5 13-5 3-5 12-9 6-3 10-1 7 3 1 5h5l2-4 5-2zm-40 12v3l-8-1-6 2v2l4 4 4 6 6 1 4-3 11-3v-4l-9-6zm40 5 1 4z" fill="#DAE3EA"/>
<path transform="translate(309,613)" d="m0 0h6l-1 2-1 4 1 6 3 2 2 5 6 5 2 4 2 9v12l4 7v10l-6 17-5-1-6-3h-13l-3-13-7-9-6-8-3-3-2 5v15l6 10 1 1v7l-5 3-7-1-20-12-9-7h-2l1 3 4 2 4 5v3l14 5 1 3-10-3-13-4-14-2h-6l-8 7-13 5-11 2h-5l2-5 9-8 4-1v-2l-15-2-2-1v-5l-5-5-9-5-5-8-1-11 3-3 8 7 9 7 5 6 1 2 1 9 1 2 26 1 9 2 9 1 6 2h3l-1-4-8-7-6-6v-2h-2l-7-8-2-4h-2l-8-12-4-5-8-16-1-7 2-2 4 8 2 5 6 10 6 9 12 14 7 7 6 3 5 6 2 1v2l4 2 22 13 5 1 4-2-2-6-5-9-1-20 3-5 5 1 4 6 5 7 5 3 1 3 9-1 10-3h5l2 6 1-2-2-6-1-14v-6l-2-2-2-9-8-8v-3h-2l-1-2-1-9z" fill="#759950"/>
<path transform="translate(312,614)" d="m0 0 6 2 7 8v2h2l3 5 2 5 3 4v2l4 2 5 2 7 1-2 4-3 3-1 6 1 2 4 1-2 6v7l1 6-5 10-4 11-4 6-6 6h-7l-6-1-2 2-4-1 1-5 1-2h-6l-2 2-2 5-5-5v-5h3l1-5-4 1-1 5h-3l-6-16-6-9-1-5v-12l3-6 4 4 6 8 7 9 2 8v5l5-1h8l11 5 2-9 3-8v-10l-4-7v-12l-3-11-4-5-4-3v-4l-4-2-1-6z" fill="#405014"/>
<path transform="translate(665,584)" d="m0 0h18l10 5 6 6-1 5-7 4h-5l-7-5h-10l-6 5v7l8 6 16 8 6 5 4 7 1 9-3 9-7 8-8 4-9 1-9-2-10-6-2-2v-5l3-1v-2l5-3 4 1 6 4h8l4-2 1-2v-7l-6-5-11-5-8-5v-2l-3-1v-2h-2l-4-6-2-6v-6l5-8 4-5z" fill="#F4675F"/>
<path transform="translate(248,234)" d="m0 0 7 1 3 4 16 3 10 4 8 6v6l-3 3-8 2-2 6-7-1h-15l-8 4-6-2v-2l-7-2-7-1-4 3-5-1-1-6-4-1-6 5-3 4-6 1-2-3 4-7v-9l-4-6 1-4h6l9 5 5 1 4-1 1-3 14-7z" fill="#DBE4EB"/>
<path transform="translate(356,593)" d="m0 0 9 1 4 4 9 4 8 3-1 3-7 2v1l8 2 4 2v2l-6 1-1 2 13 1 1 2-7 2 1 1h11l-3 3-1 3h8l3 1h5l1 5h-6v3l8-1 5-2v6l4-2h3l2-4 7-5 3 1v4l13 1 6 7 7 2 3 2 6-2h7l5 3v5l6-2 1-2h2l1-3 6-3 8 1 6 4 2 4 1 13-6 6h-3l-6-15-4-4-6 1-7 5-6 2h-20l-11-3-30-10-25-9-7-3-4-4-5-9-7-9-5-8-5-9-8-4z" fill="#496C15"/>
<path transform="translate(660,699)" d="m0 0 6 1 2 4 4 2 14 3 3 2-1 5-12 5-3 5-8 8-8-1-8-4-6-4-5 1-9 6-7 5h-8l-9-4-6-5-7 1-11 5h-5l-2-2v-7l6-7 9-4 9-6 16-8 7 1 4 8 5 2 9-1 10-6zm-46 11-2 2 2 3-2-1h-7v8l5 6h5l1-2 13-2 3-3v-2l-10-5-4-4zm39 2-4 2 2 6 3 5 5-1 2-5-1-5-3-2z" fill="#DAE3EB"/>
<path transform="translate(573,76)" d="m0 0 5 1 2 3v6l-6 3v2h7l1 3 4 2 1 1 1 10 2 4 6 5 6 7h5l-3 11-13 2-3-1h-7l-9 5-4-1 5-10-9 2-10 6-3 6v8h-7l3-5v-12l6-10 2-3v-6l-6-12 1-5 7-2 8-6 2-3 1-7z" fill="#B9C07A"/>
<path transform="translate(348,676)" d="m0 0 2 3v2l5-2 4-3h3l-2 15 1 7 5 9-2 6-3 7-2 11h-6l-7-3-6-2-5 1-1 3h6l-1 3-9 1v-2l-7-2-14-8-6-7 2-6 2-2h6v3l-1 5 4-1 5-1 2 1h7l7-7 5-12 4-9 2-6z" fill="#769950"/>
<path transform="translate(527,408)" d="m0 0 5 1v10l6-3 4-4 5 1-3 10-1 2 10 1-2 5-7 4 4 3 4 2-1 5-4 1-6-2 3 9-1 2-5-1-5-4-2 10h-5l-2-3-1-5-9 1-1-1v-6l-9-2v-5l6-4-1-3-5-3v-4h9l5 2-7-10 1-5h6l4 5v2h2l2-10z" fill="#8E50A0"/>
<path transform="translate(349,411)" d="m0 0h6l-2 4v29h7l1-1v-30h9l5-2h6l-1 21 1 11h8l2-2v-9l2-4v30l-6 2-13-3-1 5-4-1v-3l-3-1-2-8h-11v7l-2 7-3-1v-13l-38-3-9-1v-3h11l22 2h14z" fill="#415214"/>
<path transform="translate(589,262)" d="m0 0 9 1v2l7 2 4 5 3 7v5l-1 3 1 2v10l-3 3-12 4h-8l-10-3-6-4-1-7 3-17 1-2h2l2-4 4-4z" fill="#A98868"/>
<path transform="translate(667,302)" d="m0 0 11 1 11 4 6 4h8l3-2h6l-1 14 1 5-3 1-9-5-5 1-2 1h-9l-10 2h-7l-4-1h-14l-10-5-1-1v-5l5-4 7-3 9-3z" fill="#DCE5EC"/>
<path transform="translate(492,230)" d="m0 0h6l9 4 3 3 8 6 2 1 2 5 4 5-2 6-2 1-12 2-9 2-3-1h-17l-10-5-2-3 1-4 3-1 1-7 4-1 6-8 5-1z" fill="#415114"/>
<path transform="translate(315,613)" d="m0 0 6 4 8 9 4 6h9l4-2 2 7 3 1 2-5h2l2 4 4 1 2-11h4l2 2v13l-4 6h-3l-1 5-10 15v9l6-2 7-1-1 7-1 6v9l5 8 1 6-5 12-3 10h-9l-8-2v3l-8 3 9 3 2 4-1 2 10-3h9l4-8h1l1 8-3 3v5l-4-1-3-4-8 1-7 4-4 5-4-1 2-6 3-5v-2l-2-1h-10l-2 2-4-1v-4l6-5v2l9-2 1-2h-6l1-4 5-1 11 4 8 2 1-11 5-11-2-5-4-8 1-13 2-7-6 3-2 2h-4l-1-5h-2v-7l3-6-5-1-1-5 3-5 4-5h-7l-6-3-5-5-3-4-3-9h-2l-7-9-3-2z" fill="#B3BD73"/>
<path transform="translate(407,181)" d="m0 0 7 1 6 4 16 4 2 2-1 6-4 5-12 7-5 3-7 5-5-2-12-9h-6l-8 6-7 6-7 1-10-4-4-3-3-7-6 2-18 8-4-1 13-6 17-9h2l1 5 4 6 7 4h5l2-2-3-2 1-3 10-2 10-6h9l1 2h-2l3 5 4 2v2l3 1 1-8-1-2v-6l-3-4v-3l3-1-1-3-7 2v2l-10 6-2-1 9-7 1-2-2-1 11-2z" fill="#DCE5EB"/>
<path transform="translate(340,577)" d="m0 0h8l4 4h47l1-3h1l2 7 1 2h-2l1 5-4 3-4-1-13 1-2-3-9-1-9 1v1h-6v2l6 2 4 4 8 14 5 6 4 5 5 10 5 3 24 8v1l-7-1-21-7-3-2v-2h-2l-5-9-12-17-5-10-10-6-9-1v2l-11 1h-22l-1-2 5-4 9-1 8-5 4-1v-2z" fill="#86A358"/>
<path transform="translate(312,614)" d="m0 0 6 2v3l-2-1v5l5 5 7 8 3 13v13l3 4 2 4v8l-7 19-4 2-10-5h-8l-3 2 3 4-3 7 2-1h11l10 2 3 3 6-7 6-15 4-8 3-1-2 6-4 9-5 12-8 8h-7l-6-1-2 2-4-1 1-5 1-2h-6l-2 2-2 5-5-5v-5h3l1-5-4 1-1 5h-3l-6-16-6-9-1-5v-12l3-6 4 4 6 8 7 9 2 8v5l5-1h8l11 5 2-9 3-8v-10l-4-7v-12l-3-11-4-5-4-3v-4l-4-2-1-6z" fill="#4C7316"/>
<path transform="translate(169,286)" d="m0 0 5 2 2 2 12 2 10 6v7l-5 4-2 3-6-1-8-1-6 2h-7l-3-2h-13l-4-3-5 1-4 2h-3l-1-12-1-4 5-1 7 3 5-1 3-3z" fill="#DBE4EB"/>
<path transform="translate(211,485)" d="m0 0h8l2 2 2 8 1 3 4 2 9 1 5 4-2 4-2 2-4-1-4-3-8-4-5-5-4-3-8 1-8 5-9 6h-2v3l2 1-4 3-7 1-11-3-8-6-8-7h-6l-17 9-8 3-4 1h-10l-2-2 9-3 10-3 16-10 10-5 4-3 4 2 3 2 4 10 6 5h7l2-1 1-4-2-1 13-2 18-11z" fill="#DFE7EC"/>
<path transform="translate(346,306)" d="m0 0 9 1 9 7 5 4 2 1 3 6 1 1v5l-2 2-12 2-13 2h-12l-10-6-1-4 3-3 1-5 5-2 1-5z" fill="#415214"/>
<path transform="translate(570,311)" d="m0 0 9 5 4 5 5 10-3 3-14 4-6 1h-19l-14-3-6-2 2 3-1 4-1 3h-3l-3-4 1-4 2-3 1-7 3-5 2-3 5-3 3-3h2v3h2v2l-5 2v2l9 2 1 1h19l7-2-2-6z" fill="#AB8768"/>
<path transform="translate(614,700)" d="m0 0 7 1 5 10h-3l2 3 8 2 21-10 7-4 2 2v20l1 3-2 4-6-2-5-4-3-7-6 1-16 8-4 1-1 3-3 2h-5l-7-5-3-9-15 6-2 2-8 3-1 2h5l-1 2h-5l-2-2v-7l6-7 9-4 9-6zm0 10-2 2 2 3-2-1h-7v8l5 6h5l1-2 13-2 3-3v-2l-10-5-4-4zm39 2-4 2 2 6 3 5 5-1 2-5-1-5-3-2z" fill="#FCFCFC"/>
<path transform="translate(438,633)" d="m0 0 3 1v4l13 1 6 7 7 2 3 2 6-2h7l5 3v5l6-2 1-2h2l1-3 6-3 8 1 6 4 2 4 1 13-6 6h-3l-6-15-4-4-6 1-7 5-6 2h-20l-9-2 4-4 5-6h2v-2l-10 4-3-1v-5l-5 1 2-4 1-3-6 4-1 3-6 2 1-10z" fill="#759950"/>
<path transform="translate(170,650)" d="m0 0 8 6 10 8 5 6 1 2 1 9 1 2 26 1 4 1v2h3v2h-3l-2 6-9 6-9 3-11 2h-5l2-5 9-8 4-1v-2l-15-2-2-1v-5l-5-5-9-5-5-8-1-11z" fill="#B49C75"/>
<path transform="translate(380,663)" d="m0 0 3 1 3 8 1 16 3 5 1 3v11l-4 6-1 3 18-1 9-4 9-7h2l2-4 8-6 16-8 12-3h6l-1 3-8 4-5 5-2 6v11l3 8 3 3 9 4 6 2v3l-1 1h-5l4-1v-2l-9-2-2-1v-2l-5-1-4-5-2-5v-16l5-8h-4l-18 10-11 10-8 4-7 4-25 1v4l-6 4-3 6-3 1 2-6 7-8 3-4-1-16-3-6-6-8 1-3 3-2 2-14z" fill="#B1BC72"/>
<path transform="translate(235,457)" d="m0 0 5 1 3 4 3 9 4 5 5 3v2l-9-1-6-3v4h2v3h-5l-4-5-6-2v-2l5-3h2v-2l-7 3-16 8-5 3-11 2-12-5-6-6v-2h-8l-15 8-5 3-10 1-2 1h-8l1-2 8-1 12-7 16-8 6-2h6l7 10 5 4h12l12-7 10-7 9-6z" fill="#E1E8EE"/>
<path transform="translate(736,344)" d="m0 0 14 1 6 6h6l7-1 1 5-3 8-10-1-5 5-4-2-12 1-5-2h-12l-9-7 2-4 11-4 10-2z" fill="#DCE5EC"/>
<path transform="translate(244,678)" d="m0 0 5 2 9 7 9 5 12 7h5l5-2v-5l2 2 3 12h3l-1-3h2v-2l4-1-1 5h-3l2 7 5 5 7 6 11 6 6 3-5 6-4-1-16-6-12-4h-9l-2-2 6-3 5-1-2-5-2-1-1-6h-2l-4-5-11-3-1-2-15-5v-5l-7-6-3-3z" fill="#947249"/>
<path transform="translate(453,688)" d="m0 0 3 1-4 5-2 4-2 14-4 4-11 5-12 3h-23l-12-3 1-2 15-1 10-4 4-3 6-3 10-9 18-10z" fill="#415214"/>
<path transform="translate(338,420)" d="m0 0h9l1 1v24h-14l-30-3-1-1-1-17 1-3h6l2 2 1 6h23l1-7z" fill="#AE8B6C"/>
<path transform="translate(303,445)" d="m0 0 18 1 23 2 4 1v15l-5-3v-5l-4 4 1 2-5 2-3 5 2 4 6 4 1 3-13 2-3 2h-5l2-5v-9l-10-10-3-6-1-7h-5z" fill="#B5BE75"/>
<path transform="translate(591,562)" d="m0 0h7l11 4 3 2 10-1 1 1 1 13-2 1-8-3-3 1-21 1h-14l-1-2-5-3 1-6 9-5 8-1z" fill="#DCE5EC"/>
<path transform="translate(511,615)" d="m0 0 4 1 6 5 4 7 3 5 1 6v11l-2 10-5 7-2-2-1-10-3-5-7-3-17 1-1-1 1-7h2l1-3 1 7 5 1 6-3 2-2-1-6-3-5h2v-8l3-2h4z" fill="#D7D885"/>
<path transform="translate(417,595)" d="m0 0h12l2 1v5h17l1-3 15 1 2 1v5l9 2 7-1h9l2 1-1 5 9 5 6-1 4-1 3 2v2l-7 2 1 9-6-2-1-3-5-2-19-10-16-5-15-3-9-1-24-1-4-2 4-3z" fill="#425514"/>
<path transform="translate(218,341)" d="m0 0h6l2 1h11l9 8 1 4-5 4-3 2-4-1-8-1h-8l-7-1h-16l-1-1v-9l1-2h12z" fill="#DEE6ED"/>
<path transform="translate(201,616)" d="m0 0 2 1 5 12 6 10 6 9 12 14 7 7 6 3 5 6 2 1v2l4 2 22 13 5 1 4-2-2-6-5-9v-8h1l2 9 6 9v7l-5 3-7-1-20-12-9-7h-2l1 3 4 2 4 5v3l14 5 1 3-10-3-13-4-14-2h-6l-2 1 1-4h3v-2l-3-1 14 1 6 2h3l-1-4-8-7-6-6v-2h-2l-7-8-2-4h-2l-8-12-4-5-8-16-1-7z" fill="#B49F76"/>
<path transform="translate(632,156)" d="m0 0h3v6l-1 3 11 3 5 3-1 5 7 6 1 3-1 1-10 1-3 4-5-1-8-4-4-8-4-3 1-5 5-5z" fill="#465719"/>
<path transform="translate(425,431)" d="m0 0h10l2 1v18l1 2 7-1h10l21-2 1 5v3h-3v-5l-27 3h-1l-1 7h-2v-7h-8l-2 5-5 1h-9l-2-1v-23h1l1 13 6-1z" fill="#405014"/>
<path transform="translate(511,570)" d="m0 0 1 2-1 6h-5l-2 6-5 2 2 8h5v3l-6-1-8 1v-2l-3-1-3-5-5-4v-2l-5 1-2 2 2 2-1 1-25 2-1-4-3-2-7-1 3-2 11 1 4-2h12l3-3h7l4 3 13 3 6-4 5-5h3z" fill="#86A358"/>
<path transform="translate(436,634)" d="m0 0h2l1 6-1 8-1 2 6-2 1-4 4-3h2l-1 4-2 3 6-2v6l6-2 6-1v2l-5 4-2 5-9-1-27-9-8-3 2-1 2-6 4-2v6l4-2h3l2-4z" fill="#4B7215"/>
<path transform="translate(542,308)" d="m0 0 7 1h17l4 2 3 11-2 2-6 1h-19l-1-1-9-2v-4l5-1v-2h-2v-3l-2-1z" fill="#AF8C6E"/>
<path transform="translate(405,184)" d="m0 0 2 1-1 4h-3l4 8v6l1 2-1 7-2 1v-2l-5-2-4-4 1-4h-9l-12 7-8 1v2l3 2-3 3-7-1-8-6-3-7 2-1 4 7 6 1 4-3 11-3-2-4-6-3 3-1 10 4h2l2-4 10-6h2v-2zm-3 14 1 4z" fill="#FDFDFD"/>
<path transform="translate(141,670)" d="m0 0 4 1 7 5v2l9 3 3 2 9 2-1 2-11 1-12 8-4 2-13 1-8-2 3-5 10-6 4-2 9-1-2-5-5-4v-2h-2z" fill="#4D7417"/>
<path transform="translate(409,181)" d="m0 0 5 1 6 4 16 4 2 2-1 6-4 5-12 7-5 3-7 4v-4l-1-5 1-2h6 1l-7-3 1-10 4-1 3 2 16 2v-2l-9-1-6-3-3-3v-3l-6-2z" fill="#FDFDFD"/>
<path transform="translate(360,674)" d="m0 0h4l-1 7-1 6v9l5 8 1 6-5 12-3 10h-9l-8-2v3l-8 3 9 3 2 4-1 2 10-3h9l4-8h1l1 8-3 3v5l-4-1-3-4-8 1-7 4-4 5-4-1 2-6 3-5v-2l-2-1h-10l-2 2-4-1v-4l6-5v2l9-2 1-2h-6l1-4 5-1 11 4 8 2 1-11 5-11-2-5-4-8 1-13 2-7-3-1z" fill="#B6BF75"/>
<path transform="translate(360,187)" d="m0 0 5 1 4 5-3 1-4-1v3h-8l-5 1-1 2 2 1-14 8-10 5-6 2 5-1 19-8h4l2 6-3-2h-7l-16 7h-6l1-7 3-5 13-5 3-4 10-3z" fill="#FDFDFD"/>
<path transform="translate(250,626)" d="m0 0 5 4 3 5v7l-4 10-9 18-2-4-2-6v-9l5-19z" fill="#4C7316"/>
<path transform="translate(200,570)" d="m0 0 3 1 4 9v12l-6 15-1 2h-2l-5-10-1-3v-7l4-13 2-5z" fill="#4D7417"/>
<path transform="translate(340,580)" d="m0 0h7l2 4 2 1h-4v2l4 1v2l7 1-2 1v3l6 2 4 4 8 14 5 6 4 5 5 10 5 3 24 8v1l-7-1-21-7-3-2v-2h-2l-5-9-12-17-5-10-10-6-9-1v2h-8v-1h6l-2-3h-12v-2l7-4 4-2z" fill="#97AC63"/>
<path transform="translate(520,244)" d="m0 0 2 2 5 7v4h3l1-2 4 1 4 4 5 2v2l3 1 3 7h-27l-3-1v-2l-4-1 2-5 1-2 5-1 1-6-5-6z" fill="#AB8E6C"/>
<path transform="translate(437,726)" d="m0 0 8 1 6 4 9 1 10 1-4 2-16-2-8-4-1 2 3 1-3 4-6 3 3 2-1 4-4 6 8-4 12-3h8l1 3-1 4h2v2l-4 2-5 13-1-3 4-11 2-8-7 1-13 4-9 7-3 4h-2l1-6 6-9 3-4h-11l-6 1 2-4 9-4 9-2-3-2 1-5z" fill="#B6BF75"/>
<path transform="translate(358,477)" d="m0 0h5l2 3 2 6h20l5 3v2h-2v4h-10l-4-2h-8l2 7v2l2 3-2 1-3-3h-2l-2-2-2-1-1-4 1-4-4-6v-8z" fill="#B6BF75"/>
<path transform="translate(542,198)" d="m0 0 4 1 11 8 3 4-1 2-6 1-1 3-1-1v-6l-11 7h-8l-3-3v-5l5-5z" fill="#425315"/>
<path transform="translate(380,663)" d="m0 0 3 1 3 8 1 16 2 2-1 14-3 1-5-12-7-7 1-4 2-7 2-10z" fill="#B1BC72"/>
<path transform="translate(504,646)" d="m0 0 8 1 6 4 2 4 1 13-6 6h-3l-6-15-5-5-1-5z" fill="#445618"/>
<path transform="translate(511,615)" d="m0 0 4 1 6 5 4 7 2 3v12l-3-1-2-3-13-2-4-8h2v-8l3-2h4z" fill="#A9B670"/>
<path transform="translate(312,415)" d="m0 0h23v9l-1 5h-18l-3-1-1-3z" fill="#404F14"/>
<path transform="translate(660,699)" d="m0 0 6 1 2 4 4 2 14 3 3 2-1 5-12 5-3 5-8 8-8-1v-1h7l4-6-1-12 2-4-2-1-2-7-5-1z" fill="#FBFBFC"/>
<path transform="translate(123,631)" d="m0 0h3l6 11 4 9 1 14-5-2-3-3v-2h-2l-5-9-2-6v-7z" fill="#5E812B"/>
<path transform="translate(379,352)" d="m0 0h7v2l-5 3-14 2-21 4-38 6h-4l1-3 56-11z" fill="#415214"/>
<path transform="translate(390,615)" d="m0 0 12 6 3 4-2 4 1 1 11 2 2 2h9v2l8-3 4 1-8 6-1 2-8 3v-6l-9 3-3-1v-3h6l-1-4h-7l-1-1-8-1 1-4 2-1h-10l-2-2 7-3-13-2 1-3h6z" fill="#759950"/>
<path transform="translate(407,181)" d="m0 0 6 2 2 1 2 5 10 4 6 1v2l-16-1-5-2h-2v10l11 3 1 2-7-1-6-1-2 4v-6l-1-2v-6l-3-4v-3l3-1-1-3-7 2v2l-10 6-2-1 9-7 1-2-2-1 11-2z" fill="#D8E2EA"/>
<path transform="translate(200,686)" d="m0 0h19l10 2-3 1-2 6-10 4-8 3-4 1h-9l6-7 5-3h3v-2l7-1-12-2z" fill="#4E7418"/>
<path transform="translate(250,734)" d="m0 0h4l-2 5h-2v2l-12 8-16 3-1-4 4-4h2v-2l6-4 10-3z" fill="#54791F"/>
<path transform="translate(327,533)" d="m0 0 5 2 2 30-1 1h-9l-2-1 2-26 2-5z" fill="#957149"/>
<path transform="translate(170,652)" d="m0 0 8 6 9 7 5 7 1 10h-3l-5-6-5-2v-2l-5-1-5-9z" fill="#4C7316"/>
<path transform="translate(697,393)" d="m0 0h7l8 3 1 4-7 3-15 1-9-1-2-2 1-4 3-2z" fill="#DBE4EB"/>
<path transform="translate(462,683)" d="m0 0h6l-1 3-8 4-5 5-2 6v11l3 8 3 3 9 4 6 2v3l-1 1h-5l4-1v-2l-9-2-2-1v-2l-5-1-4-5-2-5v-16l5-8h-4l-18 10-5 5-2-1 9-10 16-8z" fill="#A7B66C"/>
<path transform="translate(648,404)" d="m0 0h19l2 4-3-2-16-1-1 61 1 28 1 6 13 1v-47h4l2 1-1 3-4-2 1 46-1 1h-17l-1-15v-28z" fill="#A2B571"/>
<path transform="translate(447,436)" d="m0 0 5 2 2 4 14 1 1-5 4-1v13l-27 1v-13z" fill="#AE8B6D"/>
<path transform="translate(599,212)" d="m0 0h7l5 7-2 7-1 1h-8l-2 9-4 1-2-2-1-6 5-11 2-5z" fill="#415314"/>
<path transform="translate(421,392)" d="m0 0h7v1h-6v13l-2 6-4 5h-2l-2 4-7 7-2 3-3-1-2-5v-8l6-3 9-1-2-5-1-3 3 1 2 4 3 1 1-8z" fill="#B4BB74"/>
<path transform="translate(469,336)" d="m0 0 1 2 3-1 4 10v7l7-1 3 4 2-2h4v-7l4-8 1 4-2 3v8l4 4-1 3h-7v6l-1 2h-6l-3-3 1-7v-5h-2l-1 2-6-2v-8l-2-2v-6h-4z" fill="#7B9C52"/>
<path transform="translate(507,527)" d="m0 0 5 1 13 6 3 2-3 7-1 7-4 9-5 16-3 9-5 16h-1v-7l5-13 2-8 4-10 3-9 1-8h-3l-1 2-2-9-7-9z" fill="#98A763"/>
<path transform="translate(141,670)" d="m0 0 4 1 7 5v2l9 3 3 2 9 2-1 2-11 1-6 4h-2l1-3 4-2-4-2-11 1-12 6-3 2v2h14l8-2-1 2-4 2-13 1-8-2 3-5 10-6 4-2 9-1-2-5-5-4v-2h-2z" fill="#8C9C58"/>
<path transform="translate(608,624)" d="m0 0 9 1 7 3 2 3-4 4h-20l-3-3 2-5z" fill="#FDFDFD"/>
<path transform="translate(494,197)" d="m0 0h9l1 2-1 2h5l-1 7-1 2h-7v2l-6 2-5-6 2-6z" fill="#DBDB88"/>
<path transform="translate(392,414)" d="m0 0h12l-3 2-2 1v8l1 5 3-1v2l4 1v2l-7-2 1 5-4 2v3h-2v13l-2 5-4-1 3-1 1-31z" fill="#90A35E"/>
<path transform="translate(481,651)" d="m0 0 6 1 2 9-6 2h-20l-3-1v-2l11-8 3 1 1 2h5z" fill="#4B6E17"/>
<path transform="translate(593,190)" d="m0 0h3l-1 3h-2l-1 5-2 3-8 1-2 10-3 1-3-5-1-4-4-1v-3l3-1-1-5h2l1 4h7l2-5 3-2z" fill="#B08E6F"/>
<path transform="translate(741,404)" d="m0 0h3l-1 7-1 91-1 1h-16l-1-19v-25l-1-2h-2l-2 2v-4l3-3 3 1 1 3v45l14-1z" fill="#98AD65"/>
<path transform="translate(304,533)" d="m0 0 4 4-1 2h-2l-2 4-2 9-4 4-4 12-6 5-10 1-3 3-1 16-3 3h-2l-1 9-3 1 2-9 5-6v-13l5-6 9-1 5-2 4-20 2-5 5-3 3-4z" fill="#B7C17D"/>
<path transform="translate(549,298)" d="m0 0 9 3 1 4 7 2 4 4-10-1h-11l-5-1 1-2h5l-1-3-11 1h-13l-6-1v-2h17z" fill="#A18B60"/>
<path transform="translate(360,674)" d="m0 0h4l-1 7-1 6v9l5 8 1 6-5 12-3 10h-9l-8-2v3l-6 1 3-4h-6l1-4 5-1 11 4 8 2 1-11 5-11-2-5-4-8 1-13 2-7-3-1z" fill="#B6BF75"/>
<path transform="translate(491,689)" d="m0 0h2l1 3-2 6-5 6-6 4-6 3-5 2-5-3-1-3 14-5 6-5z" fill="#4D5E1F"/>
<path transform="translate(315,613)" d="m0 0 6 4 8 9 4 6h9l4-2 3 9 5 2-1 2h-6l-2-1h-6l-1 2-5-5-3-4-3-9h-2l-7-9-3-2z" fill="#AEBA70"/>
<path transform="translate(402,181)" d="m0 0h5l-2 2-9 2-1 3-13 8-6-1-6-4-3-5 5-2 2 6h5l2-4 5-2z" fill="#FDFDFD"/>
<path transform="translate(370,741)" d="m0 0 5 5 12 11 3 3-1 4-9-3-10-8-3-2-1-6z" fill="#957149"/>
<path transform="translate(1635,404)" d="m0 0 4 1h-3v7l-2 4-2 7-5 17-1 1-2 9-4 11-3 9-2 8-6 19-1 5h15l1-7h2l-1 7-1 1h-19l3-10 5-18 7-21 7-23 7-21z" fill="#9AAF6A"/>
<path transform="translate(356,593)" d="m0 0 9 1 4 4 9 4 8 3-1 3-7 2 3 3h-7l-3-1-7-13-8-4z" fill="#4C7216"/>
<path transform="translate(249,710)" d="m0 0h14l6 4 2 8-2 1-2-1-9-1-8-5-2-5z" fill="#90A960"/>
<path transform="translate(272,701)" d="m0 0 9 2 4 4v2h2l1 6 3 1 1 5-5 2-4 3 3 1v5h-2l-1-3h-15l1-4-5-4 6 1 1-4 2 5h11l1-8-2-8-4-2-7-3z" fill="#B6AF79"/>
<path transform="translate(553,352)" d="m0 0 7 1 3 4v6l-13 4-4-1 2-11z" fill="#404F14"/>
<path transform="translate(355,595)" d="m0 0 5 1 5 3 9 16 5 6 4 5 5 10 5 3 24 8v1l-7-1-21-7-3-2v-2h-2l-5-9-12-17-5-10-7-4z" fill="#99AE64"/>
<path transform="translate(329,585)" d="m0 0m-2 1 2 1v2l-1 1h11l2 4-9 2h-22l-1-2 5-4 9-1z" fill="#88A459"/>
<path transform="translate(522,369)" d="m0 0 5 2 11 4 15 2 15-1 13-3-1 3-8 3-11 2h-11l-12-2-11-4v-2l-5-2z" fill="#435315"/>
<path transform="translate(1755,420)" d="m0 0h15l5 2v1h-19l-5 1v38l2 2 6 1 17-1-2 2-3 1h-17l-5-4v-39z" fill="#8EA861"/>
<path transform="translate(250,626)" d="m0 0 5 4 3 5v7l-4 10-9 18-2-4-2-6v-9l5-19zm0 3-3 5-3 8-1 17 2 4 3-3 6-12 2-6v-6l-4-6z" fill="#90A960"/>
<path transform="translate(226,686)" d="m0 0 14 1 6 2h5l2-2 2 4v2l14 5 1 3-10-3-13-4-14-2h-6l-2 1 1-4h3v-2z" fill="#B39E74"/>
<path transform="translate(409,554)" d="m0 0 2 1 1 5v25h-6l-1-4 1-17z" fill="#957149"/>
<path transform="translate(373,364)" d="m0 0 4 1 4 6v2l3 1v3h-12l-8-1 1-4 2-3h2l2-4z" fill="#404F14"/>
<path transform="translate(565,149)" d="m0 0h2l2 10 8 3-2 4-2-1v-2l-13 3-2 3h-5l-2-6 3-2h8l2-11z" fill="#B08E6F"/>
<path transform="translate(614,700)" d="m0 0 7 1 1 2v6l-4-2-7 1-7 3-12 5-2-1 1-3 15-8z" fill="#E3EAEF"/>
<path transform="translate(453,744)" d="m0 0h8l1 3-1 4h2v2l-4 2-5 13-1-3 4-11 2-8-7 1-13 4-9 7-3 4h-2l1-6 4-6 6-5-3 6 8-4z" fill="#B6BF75"/>
<path transform="translate(381,420)" d="m0 0h6l1 1v22h-7z" fill="#B08D6F"/>
<path transform="translate(1647,429)" d="m0 0 5 1 3 8 3 12 4 11-1 5-1-4-10-30-3 1-12 36v3l4 2-6 1-1-1v-5l2-3 2-8 3-8 3-9 2-9z" fill="#9AB06D"/>
<path transform="translate(537,312)" d="m0 0h2v3h2v2l-5 2v2l9 2 1 1h19l12-2-1 3-9 2h-17l-16-2-5-3 1-4z" fill="#916F46"/>
<path transform="translate(240,670)" d="m0 0 5 2 5 6 2 1v2l4 2 22 13 5 1 4-2-2-6-5-9v-8h1l2 9 6 9v7l-5 3-7-1-20-12-9-7-7-8z" fill="#B8AF7F"/>
<path transform="translate(413,358)" d="m0 0h5l3 3-5-1 2 4-2 2-16 2-1 1 2 1 15 1-1 4-3 3 5-1 5-6 7-4 2 1-9 6-4 6-2 1h-7v-4h2l1-4h-8l-6-2-2-4 2-1 16-2z" fill="#7D9E54"/>
<path transform="translate(380,675)" d="m0 0 3 1v9l3 6 2 3v10l-3 1-5-12-4-6 1-4z" fill="#435A14"/>
<path transform="translate(201,616)" d="m0 0 2 1 5 12 6 10 8 12h-3l1 4-3-3-8-11-8-16-1-7z" fill="#BAAE80"/>
<path transform="translate(406,595)" d="m0 0 8 1-1 2-18 5h-11l-2-1v-3l8-2z" fill="#BFC578"/>
<path transform="translate(334,722)" d="m0 0h7l10 5 2 3-10-3-7-1-2 4h6l-1 3-9 1v-2l-5-2 2-4 5-1v-2z" fill="#86A358"/>
<path transform="translate(384,627)" d="m0 0 13 1-3 5h2l1 4 5 1h4v4l-9-1-7-3-4-4-2-4z" fill="#415314"/>
<path transform="translate(512,273)" d="m0 0 12 2h16l10-1-1 3-4 2-6 1h-13l-14-3z" fill="#957149"/>
<path transform="translate(170,650)" d="m0 0 8 6 10 8 5 6 1 2v11h-4l3-1-3-12-6-7-11-8-2-2v9l4 7v2l5 1v2l5 1 4 5-5-2-10-6-5-8-1-11z" fill="#91A95F"/>
<path transform="translate(364,333)" d="m0 0h9l-2 2-17 2v13l-2 2-4-1v-12l-7-1-4-1 3-1h9z" fill="#A09265"/>
<path transform="translate(542,263)" d="m0 0 5 2 3 7h-27l-3-1v-2l-4-1 2-4h2l2 5 20-1z" fill="#8A6C42"/>
<path transform="translate(526,331)" d="m0 0 15 4 8 1h10l15-2 10-3v2l-13 5-6 1h-19l-14-3-6-3z" fill="#404F14"/>
<path transform="translate(557,447)" d="m0 0 1 3-4 8-5 13-4 9-3 24-2 4-2-2 1-1 1-19 1-3h2l1-7 3-8h2l1-6 3-8h2v-5z" fill="#BDC687"/>
<path transform="translate(607,123)" d="m0 0 4 1 4 9v6l-5 1-4-4-2-1 1-10z" fill="#485A19"/>
<path transform="translate(448,699)" d="m0 0h1l-1 13-4 4-11 5-12 3h-23l-12-3 1-2h12v1l-5 1 7 1h15l10-2 14-5 6-4z" fill="#4C7316"/>
<path transform="translate(423,393)" d="m0 0 11 1 36 7 3 1v2l-10-1-27-5-10-1-3-2z" fill="#415214"/>
<path transform="translate(581,268)" d="m0 0 3 3 7 1h14l2 1-1 3-18 1-11-2 2-5z" fill="#957149"/>
<path transform="translate(607,162)" d="m0 0h3l-1 11 1 5h-2l-1 5h-1l-1-9h-10v-3z" fill="#B08D6F"/>
<path transform="translate(575,277)" d="m0 0 14 2h9l9-1v4l-7 2-16-1-8-3-2 4v-6z" fill="#947048"/>
<path transform="translate(358,422)" d="m0 0 2 2v19l-5 1-1-1v-20z" fill="#B08D6F"/>
<path transform="translate(633,597)" d="m0 0 5 1 1 1-1 7-6 4h-4l-2-4v-5l4-3z" fill="#FDFDFD"/>
<path transform="translate(453,433)" d="m0 0h16l-1 5-2 4h-10l-3-6z" fill="#404F14"/>
<path transform="translate(357,650)" d="m0 0h2l-2 7-4 6-2 5v9l8-2v2l-5 4h-4l-1-5h-2v-7l3-6-5-1-1-5 2 4 5-2z" fill="#ACB96F"/>
<path transform="translate(1331,462)" d="m0 0 2 4 8 25 4 10v2h-20l-5-15 1-4 3 7 3 10 15 1-3-9-2-5-2-8-3-9z" fill="#9AAF6A"/>
<path transform="translate(593,149)" d="m0 0 4 2 4 4v3l-6-1-4-1h-12l-4-1 1-3 15-1z" fill="#B3AA72"/>
<path transform="translate(505,601)" d="m0 0 1 2-2 9 7 2-1 2-5 2-6-1-7-4 2-4h9v-6z" fill="#ADBA73"/>
<path transform="translate(498,263)" d="m0 0 7 1-4 4v12l-6 1-1-1v-14l-2-2z" fill="#A88B67"/>
<path transform="translate(489,510)" d="m0 0h6l3 3-1 5-3 3-7-1-3-5z" fill="#909E5D"/>
<path transform="translate(931,420)" d="m0 0h11l6 2v1h-17l-3 3v58l-2-1v-59z" fill="#B6C182"/>
<path transform="translate(526,535)" d="m0 0 2 1-3 7-1 7-4 9-5 16-3 9-5 16h-1v-7l5-13 2-8 4-10 4-13 1-2 1-9 3-1z" fill="#C4CB96"/>
<path transform="translate(512,620)" d="m0 0h5l4 1 4 7-2 2-7 1-3 1v-5l-3-5z" fill="#DDDD8A"/>
<path transform="translate(282,734)" d="m0 0 2 1-6 9-5 2v2l-7 1 3-7 7-6z" fill="#4C7316"/>
<path transform="translate(336,603)" d="m0 0h9l1 1v5l-3 1v2h-9l-2-1 1-5z" fill="#97AD63"/>
<path transform="translate(489,686)" d="m0 0 5 1v2h2l-1 5-2 1v-6l-7 6-5 6-8 4-9 2-1 2-1-3 14-6 5-2 2-2 3-7z" fill="#93AA60"/>
<path transform="translate(461,464)" d="m0 0h8l1 3-1 7-12-2-1-4z" fill="#B6BF75"/>
<path transform="translate(132,503)" d="m0 0 2 1-8 5-11 3h-10l-2-2 9-3 10-2v2h2l1-2 5-1z" fill="#EAEEED"/>
<path transform="translate(375,458)" d="m0 0h9v3l8 1v2l-2 1-15 1-5-2v-1h5z" fill="#B5BE74"/>
<path transform="translate(421,392)" d="m0 0h7v1h-6v13l-2 6-4 5h-2l-2 4-5 4 2-4 4-5-2-2 2-1-2-5-1-3 3 1 2 4 3 1 1-8z" fill="#9BA265"/>
<path transform="translate(604,722)" d="m0 0h2l4 5 5 1 1-3 12-1v2l-6 2-1 3-3 2h-5l-7-5z" fill="#FDFDFD"/>
<path transform="translate(200,570)" d="m0 0 3 1 4 9v12l-6 15-1 2h-2l-1-4 3 1v-5h2l1-7 1-2v-13l-2-3v-3h-3l-1 5h-2l2-7z" fill="#90A961"/>
<path transform="translate(522,140)" d="m0 0 5 3-1 8-5 1-5-5 1-4z" fill="#CAD098"/>
<path transform="translate(250,734)" d="m0 0h4l-2 5h-2v2l-3 1 2-4 1-1-9 1-8 3-9 7 2 1h9v1l-13 2-1-4 4-4h2v-2l6-4 10-3z" fill="#95AC63"/>
<path transform="translate(551,130)" d="m0 0 3 1 1 5-2 2-2 5v8h-7l3-5v-12z" fill="#CCC98A"/>
<path transform="translate(573,76)" d="m0 0 5 1 2 3v6l-8 1-2 1v-6h-2l2-4z" fill="#DCDC91"/>
<path transform="translate(203,692)" d="m0 0 4 1-9 5-4 4h8l11-3 7-4 3 1-8 5-9 3-11 2h-5l2-5 9-8z" fill="#96AD67"/>
<path transform="translate(518,631)" d="m0 0 8 1 1 1v10l-3-1-4-4-9-2 5-4z" fill="#435A14"/>
<path transform="translate(647,705)" d="m0 0 2 1-3 1-1 2-4 4-8 4-9-3-2-4 14 1 6-3z" fill="#E4EBF0"/>
<path transform="translate(682,396)" d="m0 0 2 1-1 2 10 3 4-1 7-2h5l3-3 1 4-7 3-15 1-9-1-2-2 1-4z" fill="#FBFCFC"/>
<path transform="translate(272,701)" d="m0 0 9 2 4 4v2h2l1 6 3 1 1 5-5 2-3 1 1-9-2-8-4-2-7-3z" fill="#B7A781"/>
<path transform="translate(251,712)" d="m0 0 14 1 3 4-1 4-14-4-2-2z" fill="#4C7316"/>
<path transform="translate(263,607)" d="m0 0 1 4-1 1v19l3 15 4 8 4 4-1 2-7-8-3-8-2-6v-28z" fill="#B8C17B"/>
<path transform="translate(467,601)" d="m0 0 12 1 3 2v3l-7 1-9-2-1-4z" fill="#AEBA70"/>
<path transform="translate(1681,470)" d="m0 0 2 4 9 27v2h-19l-3-9 1-3 4 10 14 1-4-15-4-11z" fill="#95AC66"/>
<path transform="translate(722,404)" d="m0 0h14v1h-13l-3 10-3 8-4 12-4 10-1-4 11-32z" fill="#98AE6B"/>
<path transform="translate(526,326)" d="m0 0h4l1 3-4 2v5l1 4-2 4h-3l-3-4 1-4 2-3 2-6z" fill="#957149"/>
<path transform="translate(450,705)" d="m0 0h1l2 11 4 6 10 5 6 2v3l-1 1h-5l4-1v-2l-9-2-2-1v-2l-5-1-4-5-2-5v-8z" fill="#B6BF75"/>
<path transform="translate(329,732)" d="m0 0 1 2 7-1v2l-2 1 6 2 1 2h-12l-2 2-4-1v-4z" fill="#B4B273"/>
<path transform="translate(622,568)" d="m0 0h1l1 13-2 1-8-3-3 1-21 1v-1l10-2 18-1 2 1z" fill="#FDFDFD"/>
<path transform="translate(570,311)" d="m0 0 7 4 2 5h2l1 4-6 1 1-3-5 1-1-5z" fill="#957149"/>
<path transform="translate(433,596)" d="m0 0 14 1 1 5-17-1 1-4z" fill="#AEBA70"/>
<path transform="translate(200,686)" d="m0 0h19l10 2-3 1v2h-12l-3-2-9-1z" fill="#90774A"/>
<path transform="translate(574,322)" d="m0 0h3l-1 3-9 2h-17l-12-2v-1h27z" fill="#404F14"/>
<path transform="translate(450,686)" d="m0 0m-1 1 4 2-16 8-8 6-4 2 6-8 3-3z" fill="#9CAF66"/>
<path transform="translate(299,416)" d="m0 0 2 1 1 5-1 3-1 22 3 1-1 4h-3l-1-15v-13z" fill="#C5B594"/>
<path transform="translate(390,324)" d="m0 0h16l-3 2h-11l-1 1 6 2-2 4-2 5 2-1-1 3h-5l-1-4 3-4h3l-1-2-5-3z" fill="#84A158"/>
<path transform="translate(368,734)" d="m0 0h1l1 8-3 3v5l-4-1-3-4h-8l3-3h9z" fill="#B4B473"/>
<path transform="translate(447,485)" d="m0 0 3 1-5 4-6 3-11-1 4-4z" fill="#B6BF75"/>
<path transform="translate(429,367)" d="m0 0 2 1-9 6-4 6-2 1h-7v-4h2l1-4h-8v-1h10l-1 5-1 1 5-1 5-6z" fill="#84A158"/>
<path transform="translate(550,306)" d="m0 0h14l6 4-2 1-2-1h-17l-5-1 1-2z" fill="#94704B"/>
<path transform="translate(439,724)" d="m0 0 12 1 4 2 3 3 5 2-3 1-9-1-9-5-5-1z" fill="#89A55A"/>
<path transform="translate(358,678)" d="m0 0h2v7l-2 6-5-2-2-2 1-4z" fill="#435814"/>
<path transform="translate(490,643)" d="m0 0 2 4h11l-2 2-3 1-1 2h-2l-1 3-6 1 1-10z" fill="#93AA60"/>
<path transform="translate(356,593)" d="m0 0 9 1 6 7 2 4-5 1-4-7-8-4z" fill="#425614"/>
<path transform="translate(1755,420)" d="m0 0h15l5 2v1h-19l-5 1v24h-1v-25z" fill="#A2B77F"/>
<path transform="translate(461,649)" d="m0 0h4v2l-5 4-2 5-9-1 1-3 6-3 3-3z" fill="#455F14"/>
<path transform="translate(426,645)" d="m0 0 2 1-1 3 8-1 1 4h5v3l-7-1-11-3-5-3v-1l7-1z" fill="#445817"/>
<path transform="translate(494,637)" d="m0 0h1l1 7 5 1 6-2v2l6 1 1 2-10-1-4 1h-8l-1-1 1-7h2z" fill="#BFC891"/>
<path transform="translate(381,629)" d="m0 0 4 1 3 6 5 3 24 8v1l-7-1-21-7-3-2v-2h-2z" fill="#A0B268"/>
<path transform="translate(419,739)" d="m0 0 2 1-2 3 9-1 7 1-2 4-3 2v-4h-7l-8 4-2-3z" fill="#8EA75D"/>
<path transform="translate(342,597)" d="m0 0h5l3 3v4l-2 1-1 5-2-1v-5l-6-1 1-5z" fill="#B0BB71"/>
<path transform="translate(623,144)" d="m0 0 4 4 2 5 7 2 1 5v5l9 2 1 2-13-3v-4l1-6-6 1-6-11z" fill="#B5BD91"/>
<path transform="translate(333,637)" d="m0 0h7l6 2 7 1v3h-6l-2-1h-6l-1 2-5-5z" fill="#829F54"/>
<path transform="translate(518,264)" d="m0 0h2l2 5h12v2h6v1h-17l-3-1v-2l-4-1z" fill="#957149"/>
<path transform="translate(381,603)" d="m0 0h6l3 2-2 6-1 2 3 1-2 1-4-2-7-2 1-2 7-2v-2z" fill="#759950"/>
<path transform="translate(128,637)" d="m0 0 4 5 4 9 1 14-5-2-1-2h3l-1-12-5-9z" fill="#94AD6A"/>
<path transform="translate(864,489)" d="m0 0h1l2 8 1 6h-17l-3-7 1-3 3 7 14 1-2-4z" fill="#8DA75F"/>
<path transform="translate(648,466)" d="m0 0h1l1 28 1 6 13 1v1l-16 1z" fill="#88A45A"/>
<path transform="translate(473,449)" d="m0 0 4 1v7h-3v-5l-9 1h-11l1-2z" fill="#405014"/>
<path transform="translate(417,437)" d="m0 0h1l1 13 4 2v5l-5 1-1 2z" fill="#4C7316"/>
<path transform="translate(282,732)" d="m0 0 4 1-5 3-6 2-5 4-3 6h6l-4 3-4 1-1-5 6-8 5-4z" fill="#99AE67"/>
<path transform="translate(141,670)" d="m0 0 4 1 7 5v2l5 2 1 2-8 1-2-5-5-4v-2h-2z" fill="#CDD4AA"/>
<path transform="translate(317,596)" d="m0 0h14v1l-16 2-5 5 4 1-1 5-1 2-5-1 1-2h4l-4-4 1-5z" fill="#B6BF75"/>
<path transform="translate(787,487)" d="m0 0h1v6l-2 7 12 1 2 1 1-7 2 1-2 7h-18l2-10z" fill="#93AB65"/>
<path transform="translate(1182,444)" d="m0 0 4 1-3 1-1 4 2 10h10l3 3h-14l-3-10v-6z" fill="#9BB172"/>
<path transform="translate(402,329)" d="m0 0h8l4 4-3 5-4 1v-5l2-2h-7l-7 5 2-4z" fill="#759648"/>
<path transform="translate(607,629)" d="m0 0 11 1 2 1v2l-6 1-13-1v-2z" fill="#D8E2EA"/>
<path transform="translate(422,312)" d="m0 0 20 7 2 2-6-1-15-5-2 7-9 1 1-2 7-1 1-7z" fill="#95AB63"/>
<path transform="translate(390,597)" d="m0 0h5v2h-3v2l4 1-1 1h-11l-2-1v-3z" fill="#B6BF75"/>
<path transform="translate(387,411)" d="m0 0 4 1 20 1v1h-19l1 3v10l-2-4-2-3z" fill="#445B14"/>
<path transform="translate(557,174)" d="m0 0 2 1v2h6l-2 3-5 2-2 4-3 3h-2l2-5 1-1 1-7z" fill="#B19B70"/>
<path transform="translate(301,425)" d="m0 0h2l1 17h-3v3h2v2h-3v-21z" fill="#96734B"/>
<path transform="translate(540,301)" d="m0 0h7l-1 2-8 2h-13l-6-1v-2h17z" fill="#435415"/>
<path transform="translate(335,724)" d="m0 0h6l2 2h-7l-2 4h6l-1 3-9 1v-2l-2-1 5-6z" fill="#94AA61"/>
<path transform="translate(512,273)" d="m0 0 12 2v2h16v1l-17 1-11-2z" fill="#766436"/>
<path transform="translate(158,681)" d="m0 0 4 1 11 3-1 2-11 1-6 4h-2l1-3 5-1 1-4z" fill="#B3BA7A"/>
<path transform="translate(379,622)" d="m0 0 9 1h2l1 3h11l-3 3-14-1-2 1-3-5z" fill="#4C7316"/>
<path transform="translate(230,468)" d="m0 0 5 1v4l-5 3 2 2-5-1v-2l5-3h2v-2l-7 3-10 5-2-1z" fill="#FDFDFD"/>
<path transform="translate(454,246)" d="m0 0 4 5-3 1 1 6 5-2v5l-5 3-2-2-1-10-1-5z" fill="#FDFDFD"/>
<path transform="translate(508,178)" d="m0 0h4v7h-2l-1 2-6-1-1-3h2l2-4 1 1z" fill="#DFDE8B"/>
<path transform="translate(491,689)" d="m0 0h2l1 3-2 6-1-2 1-4-4 4h-2v3l-6 5-6 2-4-1 9-4 5-4z" fill="#53781D"/>
<path transform="translate(444,451)" d="m0 0 15 2v1l-13 1-1 7h-2v-7h-6l4-2z" fill="#455E14"/>
<path transform="translate(427,402)" d="m0 0 7 1 1 5-7 1-3-1 1-5z" fill="#404F14"/>
<path transform="translate(456,744)" d="m0 0h5l1 3-1 4h2v2l-4 2-5 13-1-3 4-11 2-8h-3z" fill="#BFC788"/>
<path transform="translate(289,692)" d="m0 0 2 2 3 11-4-1-6-3 1-3 4-1z" fill="#90A35E"/>
<path transform="translate(243,642)" d="m0 0h1v23l3-1-2 6-2-4-2-6v-9z" fill="#9EB169"/>
<path transform="translate(250,626)" d="m0 0 5 4 3 5v7h-1v-6h-2l-4-6-3 4-3 8-1-4 4-9z" fill="#9BAF67"/>
<path transform="translate(234,490)" d="m0 0 4 1 7 4 3 2-12 1-2-4z" fill="#F6F8F9"/>
<path transform="translate(722,452)" d="m0 0 3 1 1 3v24h-1l-1-14v-7l-1-2h-2l-2 2v-4z" fill="#9BB16E"/>
<path transform="translate(380,668)" d="m0 0h2l2 5v15l-2-3v-9l-2-1-1 7h-1v-8z" fill="#86A359"/>
<path transform="translate(541,486)" d="m0 0 2 1v11l-2 9h-3l1-2 1-18z" fill="#BAC380"/>
<path transform="translate(529,289)" d="m0 0h5l3 3-1 3h-6l-4 1 1-5z" fill="#404F14"/>
<path transform="translate(357,650)" d="m0 0h2l-2 7-6 8-1-2-5-1-1-5 2 4 5-2z" fill="#8DA75D"/>
<path transform="translate(271,578)" d="m0 0h2v15l-3 3h-2l-1 9-3 1 2-9 5-6z" fill="#BBC485"/>
<path transform="translate(1805,486)" d="m0 0 3 1v13l-2 3-9-1-3-2h11l1-9z" fill="#99AE68"/>
<path transform="translate(337,739)" d="m0 0 5 1 1 3-5 9v2l4-1 2-1-1 4-1 1h-5l-1-1 1-7 2-5v-3z" fill="#8DA65C"/>
<path transform="translate(435,726)" d="m0 0 2 1-2 5 4 2-4 2-14 3 1-2 9-4z" fill="#8FA75E"/>
<path transform="translate(378,725)" d="m0 0h2l-2 6-5 7-3-1 2-5z" fill="#4C7316"/>
<path transform="translate(637,724)" d="m0 0 3 1-10 6-8 6h-8v-1l7-1 7-6z" fill="#FDFDFD"/>
<path transform="translate(338,604)" d="m0 0h6l2 5-10 1 1-5z" fill="#455C15"/>
<path transform="translate(237,474)" d="m0 0h6l6 5-3 1-6-3v4h2v3h-5l2-2-2-3z" fill="#FDFDFD"/>
<path transform="translate(439,438)" d="m0 0 3 1v12l-4-1v-11z" fill="#B08D6F"/>
<path transform="translate(127,692)" d="m0 0 2 1-1 3h14l8-2-1 2-4 2-13 1-8-2z" fill="#A0B475"/>
<path transform="translate(280,672)" d="m0 0h1l2 9 6 9v7l-5 2-1-2 4-2-2-6-5-9z" fill="#A8B875"/>
<path transform="translate(526,535)" d="m0 0 2 1-3 7-1 7-4 9-2 2 1-5 3-9 1-9 3-1z" fill="#BFC78C"/>
<path transform="translate(1320,484)" d="m0 0 2 3 4 11 1 3h16l1 2h-19l-5-15z" fill="#8CA75F"/>
<path transform="translate(1518,500)" d="m0 0h9l4 1h7l4-1h8v1l-8 2h-16l-8-2z" fill="#96AD67"/>
<path transform="translate(141,492)" d="m0 0 4 1-15 9h-2v2l-6 1 4-4z" fill="#FBFBFC"/>
<path transform="translate(490,468)" d="m0 0h6l2 2-1 4-2-3h-5l-3 4-1 7-2-4v-5l4-4z" fill="#B0AA70"/>
<path transform="translate(565,209)" d="m0 0h6l-2 4-5 2-5-1 1-4z" fill="#AEA16F"/>
<path transform="translate(458,726)" d="m0 0 10 3 3 1v2l-8 1-5-4z" fill="#496A15"/>
<path transform="translate(200,570)" d="m0 0 3 1 4 9v12h-1l-1-11-3-5v-3h-3l-1 5h-2l2-7z" fill="#A1B473"/>
<path transform="translate(650,595)" d="m0 0v3l-1 2v14l2 5-4-4-2-6v-6z" fill="#C3B392"/>
<path transform="translate(464,595)" d="m0 0 5 1-2 3-1 3v-2l-16-2v-1z" fill="#809F55"/>
<path transform="translate(365,594)" d="m0 0h2v2h3l1-2 2 4 7 1 1 4-9-2-6-4z" fill="#7D9E54"/>
<path transform="translate(384,447)" d="m0 0 6 3 2-1v5l-3 2-5-1z" fill="#937147"/>
<path transform="translate(469,336)" d="m0 0 1 2 3-1 3 8v10h5l-1 2-6-2v-8l-2-2v-6h-4z" fill="#8CA55C"/>
<path transform="translate(595,725)" d="m0 0h5l5 7-4-2-2-2-7 1-7 3-3-1h2l1-2z" fill="#FDFDFD"/>
<path transform="translate(533,409)" d="m0 0 9 1-6 7h-3l-1-7z" fill="#95AB62"/>
<path transform="translate(985,439)" d="m0 0h1l2 11v7l-2 9h-1z" fill="#99AF6B"/>
<path transform="translate(1302,430)" d="m0 0h2l3 7 5 18-1 4-8-25z" fill="#9BAF69"/>
<path transform="translate(400,431)" d="m0 0 5 2 5 1 4 1-3 3-9-2-1 3-1-4-1-3z" fill="#B6BF75"/>
<path transform="translate(195,578)" d="m0 0h1l-1 17v6l-2-2-1-3v-7z" fill="#9CB271"/>
<path transform="translate(1260,493)" d="m0 0h1l-1 9 15-1 2-6 2 1-3 7h-19z" fill="#93A965"/>
<path transform="translate(478,708)" d="m0 0 2 1-6 5-1 6-1-3-4-2-3-3 1-2 5 2z" fill="#A5B36F"/>
<path transform="translate(431,696)" d="m0 0m-1 1m-1 1v3l-8 9-4 1 2-4 3-3h2l2-4z" fill="#A9B76D"/>
<path transform="translate(498,649)" d="m0 0h2l1 5-12 6-1-4 6-2 1-2h2z" fill="#7D9E54"/>
<path transform="translate(527,633)" d="m0 0h1l1 12-1 2h-2v-2l-4-2-2-5 4 2 3 3z" fill="#AAB379"/>
<path transform="translate(108,493)" d="m0 0h7l5 2-1 2-7 1-4-2z" fill="#EDF1F4"/>
<path transform="translate(163,474)" d="m0 0 2 1-11 6-5 3h-8l4-2z" fill="#FDFDFD"/>
<path transform="translate(475,218)" d="m0 0 5 1v6l-4 1v-5l-6 4 2-4z" fill="#D3D58F"/>
<path transform="translate(516,163)" d="m0 0h5l2 5 2 4-4 1-5-8z" fill="#FDFDFD"/>
<path transform="translate(533,152)" d="m0 0m-2 1 5 1-3 3-4 1-2-1-2 5-2 2-2-1 2-4 2-3 5-2z" fill="#D0D491"/>
<path transform="translate(382,207)" d="m0 0 2 1-10 9-5 3h-5l2-2 5-2 9-8z" fill="#FDFDFD"/>
<path transform="translate(523,142)" d="m0 0 2 1 1 8-5 1-1-6v-2h3z" fill="#DCDB88"/>
<path transform="translate(612,126)" d="m0 0 3 3 3 10 3 4h-7l-1-2 1-2v-6z" fill="#B7B08A"/>
<path transform="translate(194,681)" d="m0 0 2 2 26 1 4 2-34-1z" fill="#BEC688"/>
<path transform="translate(1440,463)" d="m0 0 3 3 1 3v14l-4 8-1-2 3-8v-11l-2-4z" fill="#99AE64"/>
<path transform="translate(1178,401)" d="m0 0h12l8 2v1h-7l-8-1-4 1h-8l4-2z" fill="#90A95F"/>
<path transform="translate(263,620)" d="m0 0h1v7l2 5-1 11h-1l-2-12z" fill="#95AB62"/>
<path transform="translate(331,591)" d="m0 0h9l1 3-13 1z" fill="#486715"/>
<path transform="translate(507,527)" d="m0 0 5 1 6 3-3 5-5-5z" fill="#B08D6F"/>
<path transform="translate(1400,503)" d="m0 0h7l8 1 9-1-3 2-3 1h-12l-6-2z" fill="#96AC65"/>
<path transform="translate(1624,495)" d="m0 0h2l-1 7-1 1h-19l2-5 1 4h15z" fill="#8FA85E"/>
<path transform="translate(511,298)" d="m0 0 15 3 10 1v1h-20l-5-3z" fill="#957149"/>
<path transform="translate(573,129)" d="m0 0h1v6h5l-4 3-3 2-4-1z" fill="#B08E6F"/>
<path transform="translate(295,748)" d="m0 0 4 2 1 11 3 10-2-1-3-7-2-11z" fill="#B0BE83"/>
<path transform="translate(337,722)" d="m0 0 7 1 9 6-2 1-8-3v-2l-7-1z" fill="#8AA55A"/>
<path transform="translate(388,694)" d="m0 0h1v12l-3 3h-2l-2-12 2 2 2 5h2z" fill="#7F9F55"/>
<path transform="translate(268,691)" d="m0 0 12 6 4 1v2l-7-1-10-6z" fill="#B29F71"/>
<path transform="translate(355,595)" d="m0 0 5 1 5 3 5 12-1 2-4-6-3-7-7-4z" fill="#A6B56C"/>
<path transform="translate(685,498)" d="m0 0 4 2h15v2l-2 1h-14l-3-3z" fill="#9BB06A"/>
<path transform="translate(549,298)" d="m0 0 7 2 1 3h-11v-1l-5-1v-1z" fill="#957149"/>
<path transform="translate(234,263)" d="m0 0 8 2 6 2-2 1v3l-3-1v-2l-7-2-2-1z" fill="#FCFCFC"/>
<path transform="translate(654,181)" d="m0 0 3 3-1 2-10 1-3 4-5-1-3-2h8l1-4 11 1z" fill="#A7B67F"/>
<path transform="translate(356,183)" d="m0 0 4 1-16 9h-3l9-7z" fill="#FDFDFD"/>
<path transform="translate(593,149)" d="m0 0 4 2 4 4v3l-4-1-1-3-1-2-3 1h-7v-1l7-2z" fill="#B08E6F"/>
<path transform="translate(548,140)" d="m0 0h3v11h-7l3-5z" fill="#F2F5F7"/>
<path transform="translate(410,598)" d="m0 0 3 1-3 2 3 2h-13l2-3z" fill="#7B9C53"/>
<path transform="translate(465,452)" d="m0 0h8l-1 5h-4l-4-1z" fill="#AFBB71"/>
<path transform="translate(526,407)" d="m0 0h5l-4 2-3 10h-2l-2-3 1-4h3z" fill="#A7966A"/>
<path transform="translate(490,357)" d="m0 0 9 4v1h-7v6l-3-2v-8z" fill="#8FA85E"/>
<path transform="translate(460,724)" d="m0 0 7 3 6 2v3l-1 1h-5l4-1v-2l-9-2-2-1z" fill="#A0B268"/>
<path transform="translate(377,675)" d="m0 0h1v8l-1 4 1 4-5-5 1-4z" fill="#9EB167"/>
<path transform="translate(325,615)" d="m0 0 7 1 5 3v2l-6-1-6-3z" fill="#B6BF75"/>
<path transform="translate(773,592)" d="m0 0 3 1-8 7-7 7v-3l2-3h2l1-3h2l1-3z" fill="#CF8E71"/>
<path transform="translate(169,479)" d="m0 0 4 2 1 4-2-1-11-1 1-2z" fill="#E1E8EE"/>
<path transform="translate(513,420)" d="m0 0 5 5v2l-14-2 2-2h7z" fill="#AF8D6E"/>
<path transform="translate(562,319)" d="m0 0 1 4 2 2h-19v-1l13-1 1-3z" fill="#94704B"/>
<path transform="translate(489,686)" d="m0 0 5 1v2h2l-1 5-2 1v-7h-4l-2 4-3 2 2-5z" fill="#B4BF79"/>
<path transform="translate(525,645)" d="m0 0 1 2h2l1-2-1 10-1 2h-2z" fill="#BDC68A"/>
<path transform="translate(486,512)" d="m0 0 2 1-2 4h7l2 3-5 1-5-3-1-3z" fill="#9FA167"/>
<path transform="translate(152,486)" d="m0 0 4 2 3 2 2 9-3-3v-5l-7-2-4 2z" fill="#FDFDFD"/>
<path transform="translate(1501,440)" d="m0 0h2l-1 5v13l1 6-3-3v-19z" fill="#95AB64"/>
<path transform="translate(504,444)" d="m0 0h7l3 3v5l5 1-1 2-6-2-1-4v-3l-7-1z" fill="#AC916D"/>
<path transform="translate(552,346)" d="m0 0h11l1 2-2 1h-11z" fill="#957149"/>
<path transform="translate(589,262)" d="m0 0h5l3 4h-12z" fill="#957149"/>
<path transform="translate(284,737)" d="m0 0h5l1 3 3 1 2 3-1 4-6-8-4-1z" fill="#A0B268"/>
<path transform="translate(269,726)" d="m0 0h2v2h4l1-2 10 1v5h-2l-1-3h-15z" fill="#C6CA97"/>
<path transform="translate(372,612)" d="m0 0 9 1 2 2-7 3-4-4z" fill="#405114"/>
<path transform="translate(120,508)" d="m0 0h2v2l-7 2h-10l-2-2 5-1 3 1z" fill="#F7F9FA"/>
<path transform="translate(1174,484)" d="m0 0h19l-4 3h-10l-5-2z" fill="#90A85F"/>
<path transform="translate(931,420)" d="m0 0h11l6 2v1l-19-1z" fill="#8EA75E"/>
<path transform="translate(548,416)" d="m0 0 3 1 2 6-7-1v-5z" fill="#95AB62"/>
<path transform="translate(575,77)" d="m0 0 4 1 1 2v6l-4-1z" fill="#C2C986"/>
<path transform="translate(380,675)" d="m0 0 3 1v6l-5 3-2 2 1-4z" fill="#4A6E15"/>
<path transform="translate(550,306)" d="m0 0h12l1 2-13 1-4-2z" fill="#404F14"/>
<path transform="translate(531,255)" d="m0 0 4 1 2 4-7 1-4-2 4-2z" fill="#7B6E3C"/>
<path transform="translate(353,722)" d="m0 0 5 1v6l-4-1-2-5z" fill="#4C7316"/>
<path transform="translate(254,694)" d="m0 0 7 1 9 4v2l-10-3-6-3z" fill="#BBAE86"/>
<path transform="translate(348,676)" d="m0 0 2 3v2l5-2 4-3h3l-1 7h-1v-5l-5 4h-6z" fill="#85A259"/>
<path transform="translate(194,500)" d="m0 0 3 1-9 6h-2v3l2 1h-3l-2-4z" fill="#FDFDFD"/>
<path transform="translate(346,449)" d="m0 0h2v13l-4-2v-6l2-1z" fill="#94AA61"/>
<path transform="translate(368,452)" d="m0 0h10l6 1v2h-11l-5-2z" fill="#52721A"/>
<path transform="translate(286,409)" d="m0 0v3l-1 2h13v1l-12 2-3-3z" fill="#B5A479"/>
<path transform="translate(135,651)" d="m0 0h1l1 14-5-2-1-2 3-1z" fill="#B3C28F"/>
<path transform="translate(434,648)" d="m0 0 2 4h5v3l-7-1-3-1-1-3z" fill="#415314"/>
<path transform="translate(201,616)" d="m0 0 2 1 3 9-5-1-1-7z" fill="#CED3A8"/>
<path transform="translate(237,502)" d="m0 0 5 3-2 4-2 2-4-1-2-3 5 1 3-1v-2l-3-1z" fill="#FDFDFD"/>
<path transform="translate(1293,445)" d="m0 0 1 4-4 11-1 5h-1v-7l2-4 2-8z" fill="#96AD69"/>
<path transform="translate(421,438)" d="m0 0h2l1 3v7l-3 1-1-6z" fill="#B08D6F"/>
<path transform="translate(1182,417)" d="m0 0 9 1 2 2h-17l3-2z" fill="#8FA861"/>
<path transform="translate(722,404)" d="m0 0h14v1h-13l-3 10h-1v-6z" fill="#90A965"/>
<path transform="translate(769,351)" d="m0 0 1 4-3 8-7-1-1-2 5 1z" fill="#FAFBFB"/>
<path transform="translate(590,291)" d="m0 0h5l1 4-7 1z" fill="#404F14"/>
<path transform="translate(509,664)" d="m0 0h2l3 5v3l4-2-3 4h-3z" fill="#60832E"/>
<path transform="translate(358,618)" d="m0 0 3 1v5l-5 1v-5z" fill="#A8B76D"/>
<path transform="translate(497,610)" d="m0 0 6 1v2l3-1v2l-6 1-4-2z" fill="#E0DF88"/>
<path transform="translate(448,769)" d="m0 0 4 1-9 6-3 1v-2l4-4z" fill="#BAC794"/>
<path transform="translate(433,754)" d="m0 0 2 1-4 5-3 4-4-1v-5l1 4 5-5z" fill="#8DA65C"/>
<path transform="translate(250,715)" d="m0 0 10 3 7 2v1h-9l-8-5z" fill="#93AB64"/>
<path transform="translate(220,695)" d="m0 0 3 1-8 5-5 2-3-1z" fill="#97AC63"/>
<path transform="translate(187,680)" d="m0 0h3l2 6 7 2-3 1-8-2v-5z" fill="#BEC890"/>
<path transform="translate(150,678)" d="m0 0 5 1 3 3-8 1z" fill="#C6C198"/>
<path transform="translate(500,544)" d="m0 0h3l1 5-1 2-4-1v-5z" fill="#86A358"/>
<path transform="translate(1650,429)" d="m0 0 3 2 3 11-1 3-3-7z" fill="#90A95F"/>
<path transform="translate(1647,429)" d="m0 0h3v2l-3 2-3 8h-1l1-9z" fill="#9DB16D"/>
<path transform="translate(810,415)" d="m0 0h1v6l-4 10-2 2 2-9z" fill="#92AA60"/>
<path transform="translate(596,260)" d="m0 0 7 1 1 4h-3l-5-2z" fill="#FBFCFC"/>
<path transform="translate(600,226)" d="m0 0 8 1v1h-7l-2 9-4 1v-2h3l1-9z" fill="#85A258"/>
<path transform="translate(250,734)" d="m0 0h4l-2 5h-2v2l-3 1 2-4 1-1-7-1v-1z" fill="#A3B571"/>
<path transform="translate(1635,463)" d="m0 0 1 4-1 5 4 2-6 1-1-1v-5z" fill="#95AD69"/>
<path transform="translate(1300,429)" d="m0 0 2 1-3 3-4 12h-1v-6l4-9z" fill="#A1B473"/>
<path transform="translate(545,418)" d="m0 0 1 4-1 2h7l1 2h-10v-3z" fill="#B08D6F"/>
<path transform="translate(656,648)" d="m0 0 2 1-6 6 3 6-4-2-1-1v-5l3-1v-2z" fill="#C39772"/>
<path transform="translate(269,647)" d="m0 0 2 1 2 9-5-4-1-4z" fill="#95AB62"/>
<path transform="translate(328,590)" d="m0 0h11v1l-8 1-2 2 3 2h-6z" fill="#7A9C52"/>
<path transform="translate(518,545)" d="m0 0h3l-1 6-7 1 3-6z" fill="#899D58"/>
<path transform="translate(459,513)" d="m0 0 7 1 4 1v2h-9z" fill="#B4AE73"/>
<path transform="translate(1527,484)" d="m0 0h15l-4 2-1 1h-8z" fill="#90A963"/>
<path transform="translate(557,447)" d="m0 0 1 3-6 12v-7l3-1v-5z" fill="#C5CD96"/>
<path transform="translate(203,692)" d="m0 0 4 1-9 5-4 4-2-1 9-8z" fill="#90A95F"/>
<path transform="translate(290,694)" d="m0 0 2 3 2 8-4-1-1-5z" fill="#759950"/>
<path transform="translate(242,679)" d="m0 0 5 2v2l4 2 1 4-3 1-1-5-6-5z" fill="#C3C092"/>
<path transform="translate(354,682)" d="m0 0 1 2-1 4 4 1 1-2-1 4-5-2-2-2 1-4z" fill="#4C7316"/>
<path transform="translate(524,457)" d="m0 0 2 2 5 1v-2h2l-2 4-5 1-2-2z" fill="#B3AB72"/>
<path transform="translate(479,445)" d="m0 0 4 4-3 7h-1l-1-10z" fill="#B6BF75"/>
<path transform="translate(541,444)" d="m0 0h5l2 3h-3l-1 6h-1z" fill="#B08D6F"/>
<path transform="translate(580,365)" d="m0 0 2 1-3 3-8 2-4-1z" fill="#957149"/>
<path transform="translate(540,301)" d="m0 0h7l-1 2-10 2v-3z" fill="#435814"/>
<path transform="translate(615,716)" d="m0 0 2 1z" fill="#FDFDFD"/>
</svg>
